<?xml version="1.0" encoding="utf-8"?>
<!-- Generator: Adobe Illustrator 16.0.0, SVG Export Plug-In . SVG Version: 6.00 Build 0)  -->
<!DOCTYPE svg PUBLIC "-//W3C//DTD SVG 1.1//EN" "http://www.w3.org/Graphics/SVG/1.1/DTD/svg11.dtd">
<svg version="1.1" id="Layer_1" xmlns="http://www.w3.org/2000/svg" xmlns:xlink="http://www.w3.org/1999/xlink" x="0px" y="0px"
	 width="303px" height="303px" viewBox="0 0 303 303" enable-background="new 0 0 303 303" xml:space="preserve">
<g>
	<g>
		<path fill="#FFFFFF" d="M150.551,295.301c28.78-0.301,56.476-8.987,80.188-25.165l4.563-3.112
			c0.709-0.484,1.599-0.625,2.423-0.382l44.712,13.151c2.176,0.639,4.197-1.383,3.557-3.559l-13.859-47.125
			c-0.222-0.752-0.125-1.562,0.267-2.24l2.496-4.326c12.66-21.936,19.351-47.001,19.351-72.484
			c0-80.091-65.159-145.251-145.25-145.251c-77.723,0-141.382,61.363-145.08,138.188C-0.082,226.125,67.33,296.174,150.551,295.301"
			/>
		<linearGradient id="SVGID_1_" gradientUnits="userSpaceOnUse" x1="354.7998" y1="354.3867" x2="164.932" y2="165.7892">
			<stop  offset="0" style="stop-color:#116C7C"/>
			<stop  offset="1" style="stop-color:#02B3C1"/>
		</linearGradient>
		<path fill="url(#SVGID_1_)" d="M150.359,277.296c25.212-0.264,49.475-7.873,70.248-22.046l3.998-2.727
			c0.622-0.424,1.4-0.547,2.123-0.334l39.168,11.521c1.907,0.56,3.678-1.211,3.117-3.117l-12.142-41.282
			c-0.194-0.659-0.11-1.369,0.234-1.963l2.187-3.791c11.09-19.216,16.952-41.174,16.952-63.498
			c0-70.163-57.082-127.245-127.245-127.245c-68.088,0-123.856,53.757-127.095,121.057
			C18.399,216.695,77.454,278.061,150.359,277.296"/>
	</g>
	<g>
		<path fill="#FFFFFF" d="M224.033,101.303c0,8.975-7.276,16.245-16.251,16.245c-8.969,0-16.245-7.271-16.245-16.245
			c0-8.976,7.276-16.246,16.245-16.246C216.757,85.057,224.033,92.327,224.033,101.303z"/>
		<polygon fill="#FFFFFF" points="120.902,91.959 106.784,91.959 106.784,77.834 88.091,77.834 88.091,91.959 73.966,91.959
			73.966,110.646 88.091,110.646 88.091,124.771 106.784,124.771 106.784,110.646 120.902,110.646 		"/>
	</g>
	<path fill="#FFFFFF" d="M228.426,183.856c-5.841-5.164-13.358-6.091-19.145-2.358c-1.908,1.227-2.46,3.771-1.228,5.678
		c1.228,1.908,3.771,2.465,5.679,1.232c0.62-0.398,1.369-0.703,2.209-0.849c-1.293,6.382-26.607,42.921-74.513,42.921
		c-49.2,0-59.424-38.532-59.424-43.371c0-1.906-1.059-3.566-2.62-4.425c1.946-0.437,3.66-0.019,4.877,0.765
		c1.913,1.232,4.456,0.676,5.684-1.232c1.228-1.907,0.675-4.451-1.232-5.678c-5.787-3.734-13.299-2.805-19.141,2.358
		c-6.191,5.477-8.04,13.324-4.486,19.084c0.779,1.257,2.125,1.952,3.505,1.952c0.734,0,1.479-0.197,2.154-0.611
		c1.932-1.193,2.529-3.727,1.336-5.659c-0.683-1.106-0.769-2.753-0.06-4.539c1.981,18.39,30.104,49.141,69.406,49.141
		c37.09,0,76.751-27.387,83.619-45.925c1.633,2.422,1.771,4.821,0.865,6.279c-1.193,1.931-0.591,4.464,1.336,5.657
		c0.675,0.419,1.42,0.616,2.159,0.616c1.375,0,2.722-0.693,3.5-1.949C236.467,197.183,234.623,189.335,228.426,183.856z"/>
</g>
</svg>
