<?xml version="1.0" encoding="utf-8"?>
<!-- Generator: Adobe Illustrator 20.0.0, SVG Export Plug-In . SVG Version: 6.00 Build 0)  -->
<svg version="1.1" id="Layer_1" xmlns="http://www.w3.org/2000/svg" xmlns:xlink="http://www.w3.org/1999/xlink" x="0px" y="0px"
	 viewBox="0 0 1252 269" style="enable-background:new 0 0 1252 269;" xml:space="preserve">
<style type="text/css">
	.st0{fill:#FFFFFF;}
	.st1{fill:url(#SVGID_1_);}
	.st2{fill:#CCFDFF;}
</style>
<g>
	<g>
		<path class="st0" d="M130.8,263.6c25.3-0.3,49.6-7.9,70.4-22.1l4-2.7c0.6-0.4,1.4-0.5,2.1-0.3l39.3,11.5c1.9,0.6,3.7-1.2,3.1-3.1
			l-12.2-41.4c-0.2-0.7-0.1-1.4,0.2-2l2.2-3.8c11.1-19.3,17-41.3,17-63.7C257,65.7,199.8,8.5,129.5,8.5C61.2,8.5,5.3,62.4,2.1,129.9
			C-1.5,202.9,57.8,264.4,130.8,263.6"/>
		
			<linearGradient id="SVGID_1_" gradientUnits="userSpaceOnUse" x1="310.2088" y1="-86.5019" x2="143.4649" y2="79.1265" gradientTransform="matrix(1 0 0 -1 0 229)">
			<stop  offset="0" style="stop-color:#116C7C"/>
			<stop  offset="1" style="stop-color:#02B3C1"/>
		</linearGradient>
		<path class="st1" d="M130.7,247.8c22.1-0.2,43.4-6.9,61.7-19.4l3.5-2.4c0.5-0.4,1.2-0.5,1.9-0.3l34.4,10.1
			c1.7,0.5,3.2-1.1,2.7-2.7l-10.7-36.3c-0.2-0.6-0.1-1.2,0.2-1.7l1.9-3.3c9.7-16.9,14.9-36.2,14.9-55.8
			c0-61.6-50.1-111.7-111.7-111.7c-59.8,0-108.8,47.2-111.6,106.3C14.8,194.6,66.6,248.5,130.7,247.8"/>
	</g>
	<g>
		<path class="st0" d="M195.4,93.2c0,7.9-6.4,14.3-14.3,14.3c-7.9,0-14.3-6.4-14.3-14.3c0-7.9,6.4-14.3,14.3-14.3
			C189,79,195.4,85.4,195.4,93.2z"/>
		<polygon class="st0" points="104.8,85 92.4,85 92.4,72.6 76,72.6 76,85 63.6,85 63.6,101.4 76,101.4 76,113.9 92.4,113.9 
			92.4,101.4 104.8,101.4 		"/>
	</g>
	<path class="st0" d="M199.2,165.7c-5.1-4.5-11.7-5.3-16.8-2.1c-1.7,1.1-2.2,3.3-1.1,5c1.1,1.7,3.3,2.2,5,1.1
		c0.5-0.3,1.2-0.6,1.9-0.7c-1.1,5.6-23.4,37.7-65.4,37.7c-43.2,0-52.2-33.8-52.2-38.1c0-1.7-0.9-3.1-2.3-3.9c1.7-0.4,3.2,0,4.3,0.7
		c1.7,1.1,3.9,0.6,5-1.1c1.1-1.7,0.6-3.9-1.1-5c-5.1-3.3-11.7-2.5-16.8,2.1c-5.4,4.8-7.1,11.7-3.9,16.8c0.7,1.1,1.9,1.7,3.1,1.7
		c0.6,0,1.3-0.2,1.9-0.5c1.7-1,2.2-3.3,1.2-5c-0.6-1-0.7-2.4-0.1-4c1.7,16.2,26.4,43.2,61,43.2c32.6,0,67.4-24.1,73.4-40.3
		c1.4,2.1,1.6,4.2,0.8,5.5c-1,1.7-0.5,3.9,1.2,5c0.6,0.4,1.2,0.5,1.9,0.5c1.2,0,2.4-0.6,3.1-1.7
		C206.3,177.4,204.7,170.6,199.2,165.7z"/>
</g>
<g>
	<path class="st0" d="M423.3,184.7c0,6.6-5.5,12.1-12.1,12.1c-3.2,0-6.3-1.3-8.5-3.6l-46.1-46.1l-46.1,46.1
		c-2.3,2.3-5.3,3.6-8.5,3.6c-6.6,0-12.1-5.5-12.1-12.1v-97c0-6.6,5.5-12.1,12.1-12.1s12.1,5.5,12.1,12.1v67.9l33.9-33.9
		c2.3-2.5,5.5-3.6,8.5-3.6c3,0,6.3,1.1,8.5,3.6l33.9,33.9V87.7c0-6.6,5.5-12.1,12.1-12.1s12.1,5.5,12.1,12.1V184.7z"/>
	<path class="st0" d="M535.5,184.7c0,6.6-5.5,12.1-12.1,12.1s-12.1-5.5-12.1-12.1v-36.4c0-13.5-10.8-24.3-24.3-24.3
		c-13.5,0-24.3,10.8-24.3,24.3v36.4c0,6.6-5.5,12.1-12.1,12.1s-12.1-5.5-12.1-12.1V75.5c0-6.6,5.5-12.1,12.1-12.1
		s12.1,5.5,12.1,12.1v30.9c7-4.2,15.4-6.6,24.3-6.6c26.7,0,48.5,21.8,48.5,48.5V184.7z"/>
	<path class="st0" d="M591.6,99.8c26.7,0,48.5,21.8,48.5,48.5c0,8.7-2.5,16.9-6.4,24.1c4.7,2.1,8,6.8,8,12.3
		c0,7.6-6.1,13.6-13.6,13.6c-5.5,0-10.2-3.2-12.5-8c-7,4.2-15.2,6.4-23.9,6.4c-26.7,0-48.5-21.8-48.5-48.5S564.9,99.8,591.6,99.8z
		 M591.6,172.6c13.5,0,24.3-10.8,24.3-24.3s-10.8-24.3-24.3-24.3c-13.5,0-24.3,10.8-24.3,24.3S578.2,172.6,591.6,172.6z"/>
	<path class="st0" d="M669,99.8V87.7c0-6.6,5.5-12.1,12.1-12.1c6.6,0,12.1,5.5,12.1,12.1v12.1h18.2c6.6,0,12.1,5.5,12.1,12.1
		c0,6.6-5.5,12.1-12.1,12.1h-18.2v36.4c0,6.6,5.5,12.1,12.1,12.1h6.1c6.6,0,12.1,5.5,12.1,12.1s-5.5,12.1-12.1,12.1h-6.1
		c-20.1,0-36.4-16.3-36.4-36.4v-36.4h-9.1c-6.6,0-12.1-5.5-12.1-12.1c0-6.6,5.5-12.1,12.1-12.1H669z"/>
	<path class="st0" d="M784.2,172.6c3.4,0,6.1-2.7,6.1-6.1c0-3.4-2.7-6.1-6.1-6.1h-24.3c-16.7,0-30.3-13.6-30.3-30.3
		c0-16.7,13.6-30.3,30.3-30.3h36.4c6.6,0,12.1,5.5,12.1,12.1c0,6.6-5.5,12.1-12.1,12.1h-36.4c-3.4,0-6.1,2.7-6.1,6.1
		c0,3.4,2.7,6.1,6.1,6.1h24.3c16.7,0,30.3,13.6,30.3,30.3c0,16.7-13.6,30.3-30.3,30.3h-42.5c-6.6,0-12.1-5.5-12.1-12.1
		s5.5-12.1,12.1-12.1H784.2z"/>
	<path class="st2" d="M837.3,196.8c-6.6,0-12.1-5.5-12.1-12.1v-97c0-6.6,5.5-12.1,12.1-12.1h54.6c20.1,0,36.4,16.3,36.4,36.4
		c0,7.8-2.5,15-6.6,20.8c7.8,6.6,12.7,16.7,12.7,27.7c0,20.1-16.3,36.4-36.4,36.4H837.3z M849.4,99.8v24.3h42.5
		c6.6,0,12.1-5.5,12.1-12.1c0-6.6-5.5-12.1-12.1-12.1H849.4z M849.4,148.3v24.3h48.5c6.6,0,12.1-5.5,12.1-12.1s-5.5-12.1-12.1-12.1
		H849.4z"/>
	<path class="st2" d="M1038.9,148.3c0,8.7-2.5,16.9-6.4,24.1c4.7,2.1,8,6.8,8,12.3c0,7.6-6.1,13.6-13.6,13.6c-5.5,0-10.2-3.2-12.5-8
		c-7,4.2-15.2,6.4-23.9,6.4c-26.7,0-48.5-21.8-48.5-48.5v-36.4c0-6.6,5.5-12.1,12.1-12.1s12.1,5.5,12.1,12.1v36.4
		c0,13.5,10.8,24.3,24.3,24.3c13.5,0,24.3-10.8,24.3-24.3v-36.4c0-6.6,5.5-12.1,12.1-12.1s12.1,5.5,12.1,12.1V148.3z"/>
	<path class="st2" d="M1105.6,124.1h-42.5c-6.6,0-12.1-5.5-12.1-12.1c0-6.6,5.5-12.1,12.1-12.1h71.3c6.6,0,12.1,5.5,12.1,12.1
		c0,3.2-1.1,6.3-3.4,8.5l-51.2,52.1h42.5c6.6,0,12.1,5.5,12.1,12.1s-5.5,12.1-12.1,12.1h-71.3c-6.6,0-12.1-5.5-12.1-12.1
		c0-3.2,1.1-6.3,3.4-8.5L1105.6,124.1z"/>
	<path class="st2" d="M1210.2,124.1h-42.5c-6.6,0-12.1-5.5-12.1-12.1c0-6.6,5.5-12.1,12.1-12.1h71.3c6.6,0,12.1,5.5,12.1,12.1
		c0,3.2-1.1,6.3-3.4,8.5l-51.2,52.1h42.5c6.6,0,12.1,5.5,12.1,12.1s-5.5,12.1-12.1,12.1h-71.3c-6.6,0-12.1-5.5-12.1-12.1
		c0-3.2,1.1-6.3,3.4-8.5L1210.2,124.1z"/>
</g>
</svg>
